<?xml version="1.0" encoding="UTF-8" standalone="no"?>
<svg width="74px" height="137px" viewBox="0 0 74 137" version="1.1" xmlns="http://www.w3.org/2000/svg" xmlns:xlink="http://www.w3.org/1999/xlink">
    <!-- Generator: Sketch 41 (35326) - http://www.bohemiancoding.com/sketch -->
    <title>Group</title>
    <desc>Created with Sketch.</desc>
    <defs></defs>
    <g id="Login-Screens" stroke="none" stroke-width="1" fill="none" fill-rule="evenodd">
        <g id="Login/Register" transform="translate(-26.000000, -25.000000)">
            <g id="Group" transform="translate(26.000000, 25.000000)">
                <rect id="Rectangle" fill="#8C999C" x="0" y="0" width="11" height="11"></rect>
                <rect id="Rectangle" fill="#8C999C" x="0" y="21" width="11" height="11"></rect>
                <rect id="Rectangle" fill="#8C999C" x="21" y="0" width="11" height="11"></rect>
                <rect id="Rectangle" fill="#8C999C" x="21" y="21" width="11" height="11"></rect>
                <rect id="Rectangle" fill="#8C999C" x="0" y="42" width="11" height="11"></rect>
                <rect id="Rectangle" fill="#8C999C" x="0" y="63" width="11" height="11"></rect>
                <rect id="Rectangle" fill="#8C999C" x="21" y="42" width="11" height="11"></rect>
                <rect id="Rectangle" fill="#8C999C" x="21" y="63" width="11" height="11"></rect>
                <rect id="Rectangle" fill="#8C999C" x="0" y="84" width="11" height="11"></rect>
                <rect id="Rectangle" fill="#8C999C" x="0" y="105" width="11" height="11"></rect>
                <rect id="Rectangle" fill="#8C999C" x="21" y="84" width="11" height="11"></rect>
                <rect id="Rectangle" fill="#8C999C" x="21" y="105" width="11" height="11"></rect>
                <rect id="Rectangle" fill="#8C999C" x="0" y="126" width="11" height="11"></rect>
                <rect id="Rectangle" fill="#8C999C" x="21" y="126" width="11" height="11"></rect>
                <rect id="Rectangle" fill="#8C999C" x="42" y="0" width="11" height="11"></rect>
                <rect id="Rectangle" fill="#E3E7E8" x="42" y="21" width="11" height="11"></rect>
                <rect id="Rectangle" fill="#8C999C" x="63" y="0" width="11" height="11"></rect>
                <rect id="Rectangle" fill="#E3E7E8" x="63" y="21" width="11" height="11"></rect>
                <rect id="Rectangle" fill="#E3E7E8" x="42" y="42" width="11" height="11"></rect>
                <rect id="Rectangle" fill="#8C999C" x="42" y="63" width="11" height="11"></rect>
                <rect id="Rectangle" fill="#E3E7E8" x="63" y="42" width="11" height="11"></rect>
                <rect id="Rectangle" fill="#8C999C" x="63" y="63" width="11" height="11"></rect>
                <rect id="Rectangle" fill="#E3E7E8" x="42" y="84" width="11" height="11"></rect>
                <rect id="Rectangle" fill="#E3E7E8" x="42" y="105" width="11" height="11"></rect>
                <rect id="Rectangle" fill="#E3E7E8" x="63" y="84" width="11" height="11"></rect>
                <rect id="Rectangle" fill="#E3E7E8" x="63" y="105" width="11" height="11"></rect>
                <rect id="Rectangle" fill="#E3E7E8" x="42" y="126" width="11" height="11"></rect>
                <rect id="Rectangle" fill="#E3E7E8" x="63" y="126" width="11" height="11"></rect>
            </g>
        </g>
    </g>
</svg>